<?xml version="1.0" encoding="UTF-8"?>
<svg version="1.1" viewBox="0 0 1600 1600" width="1280" height="1280" xmlns="http://www.w3.org/2000/svg">
<path transform="translate(0)" d="m0 0h1600v1600h-1600v-1600z" fill="#FCFDFF"/>
<path transform="translate(983 829)" d="m0 0c1.03-0.00282 2.05-0.00564 3.11-0.00854 1.12 0.00202 2.24 0.00405 3.39 0.00613 1.18-0.00175 2.37-0.0035 3.59-0.00531 3.24-0.00365 6.49-0.00279 9.73 3.79e-4 3.4 0.00253 6.79 1.83e-4 10.2-0.00139 5.7-0.00182 11.4 5.77e-4 17.1 0.00534 6.59 0.00544 13.2 0.00368 19.8-0.00183 5.66-0.00454 11.3-0.00518 17-0.00256 3.38 0.00156 6.76 0.00177 10.1-0.00154 3.77-0.00253 7.54 0.00132 11.3 0.0069 1.12-0.00202 2.24-0.00405 3.39-0.00613 1.03 0.00282 2.05 0.00564 3.11 0.00854 0.891 3.77e-4 1.78 7.54e-4 2.7 0.00114 2.31 0.122 4.21 0.332 6.39 1.13 2.95 4.44 3.52 8.64 3.68 13.8 0.0331 0.743 0.0662 1.49 0.1 2.25 0.319 7.79 0.365 15.6 0.353 23.4 0.00102 1.53 0.00236 3.06 4e-3 4.59 0.00266 4.03-0.00169 8.05-0.00824 12.1-0.00359 2.49-0.00519 4.98-0.00626 7.47-0.0128 24.1-0.202 48.3-1.12 72.4-2.35-0.303-2.35-0.303-5-1-5.13-6.83-8.46-14.9-12.1-22.6-0.665-1.39-1.33-2.77-2-4.16-1.33-2.78-2.67-5.56-4-8.35-1.68-3.51-3.37-7.02-5.06-10.5-4.43-9.18-8.84-18.3-12.6-27.8-0.652-1.57-1.41-3.09-2.19-4.6-0.99-0.33-1.98-0.66-3-1-2.27 1.29-2.27 1.29-4.69 3.25-1.47 1.11-1.47 1.11-2.97 2.25-0.536 0.406-1.07 0.812-1.63 1.23-3.05 2.26-6.2 4.38-9.34 6.52-5.75 3.93-11.4 7.91-17.1 11.9-59.5 42.1-127 69-198 80.4-1.82 0.294-3.63 0.603-5.44 0.927-7.34 1.3-14.6 2.11-22.1 2.63-1.2 0.0839-2.4 0.168-3.64 0.254-13.9 0.888-27.7 0.994-41.6 0.958-2.13-0.00503-4.26-0.0065-6.38-0.00745-16.6-0.0159-33.1-0.165-49.6-1.68-0.686-0.063-1.37-0.126-2.08-0.191-6.25-0.599-12.4-1.41-18.5-2.88-3.17-0.715-6.37-1.26-9.57-1.82-25.9-4.48-51-10.4-76-18.8-2.82-0.937-5.64-1.85-8.47-2.75-11.8-3.78-23.2-8.16-34.4-13.2-1.07-0.477-2.13-0.955-3.23-1.45-20.8-9.36-40.6-19.7-59.8-32-6.95-4.53-6.95-4.53-14.9-6.53-0.223 0.768-0.446 1.54-0.675 2.33-1.81 5.01-4.16 9.68-6.52 14.4-0.513 1.04-1.03 2.07-1.56 3.14-1.09 2.19-2.17 4.37-3.27 6.56-1.65 3.32-3.29 6.65-4.93 9.97-1.06 2.13-2.12 4.26-3.19 6.39-0.483 0.985-0.965 1.97-1.46 2.98-3.33 6.61-7.13 12.9-12.4 18.2-1.61 0.1-3.22 0.131-4.83 0.133-1.02 0.00218-2.04 0.00435-3.08 0.00659-1.1-0.00475-2.2-0.00951-3.34-0.0144-1.12-0.00411-2.24-0.00822-3.39-0.0125-7.35-0.0483-14.7-0.157-22-0.425-0.853-0.0224-1.71-0.0448-2.58-0.0679-4.87-0.217-8.59-0.772-12.7-3.62-1.44-3.72-0.486-5.94 1.1-9.53 0.34-0.732 0.679-1.46 1.03-2.22 0.353-0.777 0.705-1.55 1.07-2.35 4.15-8.95 8.95-17.5 13.7-26.2 3.57-6.52 6.91-13.1 10.2-19.8 1.36-2.76 2.75-5.5 4.13-8.24 1.02-2.03 2.03-4.06 3.04-6.1 1.04-2.09 2.08-4.18 3.16-6.25 2.5-5.07 3.69-9.66 2.61-15.3-2.49-4.21-6.21-6.98-10-10 0.312-1.94 0.312-1.94 1-4 4.87-1.62 8.51 0.857 13 3 2.07 1.17 4.14 2.36 6.19 3.56 38.2 22.4 81.6 36.2 124 48.3 5.87 1.68 11.7 3.39 17.6 5.21 54.4 16.8 113 23.7 169 24.9 1.61 0.035 1.61 0.035 3.25 0.0708 7.92 0.145 15.8 0.0886 23.8-0.0708 0.653-0.0114 1.31-0.0228 1.98-0.0346 52.4-0.956 105-10.8 155-26 1.17-0.351 2.34-0.701 3.55-1.06 3.78-1.14 7.55-2.28 11.3-3.44 1.13-0.344 2.26-0.687 3.42-1.04 16.4-5.09 32.3-11.4 48.3-17.6 0.813-0.32 1.63-0.639 2.46-0.969 17.4-6.85 34.3-14.4 51-22.8v-5c-0.842-0.267-1.68-0.534-2.55-0.809-3.63-1.25-7.13-2.7-10.6-4.25-0.692-0.305-1.38-0.609-2.1-0.923-7.76-3.44-15.4-7.09-23.1-10.8-2.83-1.35-5.67-2.69-8.5-4.03-29.2-13.8-29.2-13.8-32.1-18.2 3.5-4.02 6.94-4.12 12.1-4.13z" fill="#FB0EA5"/>
<path transform="translate(234 679)" d="m0 0c2.51-3e-3 5.03-0.0064 7.54-0.0102 6.06-0.00785 12.1-0.0111 18.2-0.0116 4.93-4.79e-4 9.85-0.00255 14.8-0.0057 14-0.00877 28-0.0134 42-0.0127 1.13 5.99e-5 1.13 5.99e-5 2.28 1.21e-4 1.13 6.13e-5 1.13 6.13e-5 2.28 1.24e-4 12.2 4.08e-4 24.5-0.00921 36.7-0.0233 12.6-0.0144 25.2-0.0213 37.8-0.0204 7.06 3.32e-4 14.1-0.0024 21.2-0.0132 6.62-0.0101 13.2-0.00977 19.9-0.00248 2.43 0.00105 4.86-0.00133 7.29-0.00736 3.31-0.0077 6.63-0.00309 9.94 0.00463 0.961-0.00514 1.92-0.0103 2.91-0.0156 5.22 0.0269 9.6 0.437 14.5 2.26 1.52 1.77 1.52 1.77 2.38 3.81 0.296 0.666 0.593 1.33 0.898 2.02 2.24 6.68 1.95 13.4 1.98 20.4 0.0309 1.78 0.0309 1.78 0.0625 3.61 0.0613 13.9 0.0613 13.9-3.31 19.1-4.5 3.55-8.52 3.44-14 3.42-1.35 0.0129-1.35 0.0129-2.72 0.026-2.97 0.0251-5.94 0.0294-8.91 0.034-2.08 0.0143-4.16 0.0301-6.24 0.0472-5.49 0.0419-11 0.0668-16.5 0.0875-8.73 0.0357-17.5 0.0976-26.2 0.158-3.03 0.0188-6.05 0.0307-9.08 0.0414-8.92 0.0419-17.8 0.173-26.7 0.639-0.764 0.0384-1.53 0.0769-2.32 0.116-3.47-0.0817-3.47-0.0817-6.35 1.43-0.878 6.26-1.14 12.4-1.13 18.7-0.00212 0.935-0.00423 1.87-0.00641 2.83-0.00596 3.11-5e-3 6.22-0.00413 9.33-0.00303 2.24-0.00656 4.48-0.0105 6.72-0.00787 4.81-0.013 9.62-0.0163 14.4-0.00592 7.61-0.0225 15.2-0.0413 22.8-0.00634 2.61-0.0127 5.21-0.019 7.82-0.00317 1.3-0.00633 2.61-0.00959 3.95-0.016 6.74-0.0307 13.5-0.0444 20.2-0.00138 0.675-0.00275 1.35-0.00417 2.05-0.022 11-0.0327 21.9-0.0402 32.9-0.00807 11.3-0.0316 22.5-0.068 33.8-0.0198 6.32-0.0322 12.6-0.0272 19 0.00463 5.94-0.00908 11.9-0.037 17.8-0.00693 2.18-0.00701 4.36 2e-4 6.54 0.00884 2.97-0.00673 5.95-0.0285 8.92 0.0127 1.3 0.0127 1.3 0.0256 2.63-0.0544 4.01-0.241 6.09-2.38 9.58-4.88 4.5-11.9 3.17-18.1 3.17-2.12 0.00217-4.24 0.0203-6.36 0.0393-17.8 0.0769-17.8 0.0769-23.7-4.66-2.53-3.24-3.12-5.6-3.14-9.6-0.00547-0.825-0.0109-1.65-0.0166-2.5-9.78e-4 -0.906-0.00196-1.81-0.00296-2.74-0.00741-1.44-0.00741-1.44-0.015-2.92-0.0154-3.24-0.0237-6.48-0.0321-9.71-0.00958-2.32-0.0196-4.63-0.03-6.95-0.0271-6.3-0.0481-12.6-0.068-18.9-0.0218-6.58-0.0492-13.2-0.0761-19.7-0.0444-11-0.0851-22.1-0.123-33.1-0.0394-11.4-0.0808-22.8-0.125-34.1-0.00272-0.701-0.00545-1.4-0.00826-2.12-0.0137-3.52-0.0274-7.03-0.0411-10.6-0.114-29.2-0.221-58.4-0.323-87.6-1.08 7.77e-4 -2.16 0.00155-3.28 0.00236-4.11 0.00274-8.22 0.00441-12.3 0.0058-1.76 7.35e-4 -3.52 0.00174-5.28 0.00304-17 0.0123-34-0.105-51-0.329-3.13-0.0404-6.26-0.0748-9.39-0.104-3.89-0.0369-7.78-0.0831-11.7-0.136-1.45-0.0183-2.9-0.0335-4.35-0.0453-2-0.0169-4-0.0471-6-0.0778-1.13-0.0133-2.26-0.0266-3.42-0.0404-4.5-0.382-8.86-0.867-12.1-4.14-6.04-11.4-4.08-30.1-1.14-42.1 1.43-3.3 2.21-4.65 5.53-6.1 4.28-1.11 8.32-1.36 12.7-1.52 0.916-0.0376 1.83-0.0752 2.78-0.114 11.6-0.431 23.2-0.418 34.7-0.415z" fill="#230393"/>
<path transform="translate(1277,689)" d="m0 0c1.9 2.39 1.9 2.39 3.83 5.7 0.519 0.884 0.519 0.884 1.05 1.79 3.49 6 6.72 12.1 9.87 18.3 0.63 1.23 1.26 2.45 1.89 3.68 6.48 12.6 12.8 25.4 19.1 38.1 4.46 8.97 9.01 17.9 13.7 26.7 3.45 6.52 6.76 13.1 10 19.7 3.63 7.3 7.28 14.6 11.1 21.8 5.99 11.2 11.6 22.6 17.2 34 4.35 8.75 8.79 17.4 13.4 26.1 4.62 8.74 9.14 17.5 13.6 26.3 0.432 0.843 0.864 1.69 1.31 2.55 6.17 12 12.3 24.1 18.3 36.2 1.64 3.3 3.3 6.58 5 9.84 0.575 1.11 0.575 1.11 1.16 2.25 0.694 1.34 1.4 2.68 2.11 4.02 1.77 3.45 2.61 6.02 2.23 9.9-11.1 4.12-23.9 3.13-35.6 3.23-1.36 0.0132-2.71 0.0311-4.07 0.0538-1.93 0.0301-3.87 0.0374-5.8 0.0441-1.13 0.00935-2.26 0.0187-3.42 0.0283-3.47-0.403-5.29-1.27-8.07-3.36-1.58-2.32-2.89-4.52-4.19-7-0.42-0.781-0.841-1.56-1.27-2.37-1.53-2.87-3.04-5.75-4.54-8.63-0.588-1.12-1.18-2.25-1.78-3.4-11.5-22-22.6-44.3-33.7-66.5-5.99-12-12.1-24-18.4-35.9-3.12-5.9-6.17-11.8-9.23-17.8-0.756-1.47-1.51-2.93-2.27-4.4-5.13-9.91-10-19.9-14.7-30-2.49 2.25-3.88 4.43-5.35 7.44-0.652 1.33-0.652 1.33-1.32 2.68-0.461 0.951-0.922 1.9-1.4 2.88-0.993 2.02-1.99 4.03-2.98 6.05-0.498 1.01-0.996 2.02-1.51 3.06-2.03 4.06-4.13 8.07-6.26 12.1-0.817 1.54-1.63 3.09-2.45 4.63-0.647 1.22-0.647 1.22-1.31 2.47-10.6 20-10.6 20-20.5 40.5-2.34 5.06-4.88 9.98-7.5 14.9-5.67 10.7-11.1 21.5-16.5 32.4-5.37 10.8-10.8 21.6-16.3 32.4-0.576 1.13-0.576 1.13-1.16 2.29-6.77 13-6.77 13-11.5 15.3-2.49 0.099-4.94 0.14-7.43 0.133-0.746 9.57e-4 -1.49 0.00191-2.26 0.0029-1.59 6.82e-4 -3.17-0.00117-4.76-0.00534-2.39-0.00527-4.77-9.42e-5 -7.16 0.00635-24.2 0.0171-24.2 0.0171-30.4-4.14 1.43-20.9 18.4-43.8 28.1-62 4.8-8.93 9.38-18 13.9-27 5.3-10.7 10.7-21.3 16.2-31.9 3-5.67 5.9-11.4 8.75-17.1 3.64-7.34 7.41-14.6 11.2-21.9 3-5.67 5.9-11.4 8.75-17.1 3.08-6.21 6.24-12.4 9.5-18.5 5.01-9.41 9.75-19 14.5-28.5 5.82-11.7 11.7-23.3 17.9-34.8 1.29-2.44 2.56-4.89 3.83-7.34 0.451-0.869 0.901-1.74 1.37-2.63 0.857-1.65 1.71-3.31 2.56-4.97 6.36-12.2 6.36-12.2 13.4-12.2z" fill="#230393"/>
<path transform="translate(994 679)" d="m0 0c2.22-7.21e-4 4.44-0.00287 6.65-0.0055 7.76-0.00917 15.5-0.0133 23.3-0.0125 7.21 6.06e-4 14.4-0.0101 21.6-0.0257 6.23-0.0131 12.5-0.0184 18.7-0.0178 3.7 2.54e-4 7.41-0.00256 11.1-0.0132 4.11-0.0115 8.22-0.00694 12.3-8.95e-4 1.83-0.00843 1.83-0.00843 3.69-0.017 1.12 0.00419 2.24 0.00839 3.39 0.0127 1.45-8.17e-4 1.45-8.17e-4 2.93-0.00165 2.94 0.274 5.05 0.895 7.67 2.25 3.64 5.46 3.16 12 3.17 18.4 0.00333 0.777 0.00666 1.55 0.0101 2.36 0.00503 1.63 0.00741 3.26 0.00725 4.9 0.0022 2.49 0.0204 4.98 0.0393 7.47 0.00293 1.59 0.00492 3.18 0.00586 4.78 0.00719 0.74 0.0144 1.48 0.0218 2.24-0.0179 4.05-0.311 7.28-2.25 10.9-2.68 1.34-4.74 1.13-7.74 1.14-1.22 0.0069-2.44 0.0138-3.7 0.0209-1.36 0.00272-2.72 0.00535-4.09 0.00792-1.43 0.0063-2.86 0.0131-4.29 0.0203-3.09 0.0147-6.17 0.0264-9.26 0.0359-4.89 0.0155-9.79 0.0394-14.7 0.0649-13.9 0.0711-27.8 0.131-41.8 0.182-7.68 0.0285-15.4 0.064-23.1 0.107-4.06 0.0222-8.12 0.0408-12.2 0.0504-29.5-0.768-29.5-0.768-57.9 5.93-0.875 0.352-1.75 0.703-2.65 1.07-13.5 5.61-24.4 13-34.7 23.4-1.2 1.17-1.2 1.17-2.43 2.36-17 17.5-25.3 42.7-25 66.8 0.256 8.8 1.61 16.5 4.47 24.9 0.214 0.632 0.429 1.26 0.649 1.92 4.94 14.3 12.7 25.8 22.6 37 0.465 0.526 0.929 1.05 1.41 1.59 1.23 1.39 2.46 2.77 3.69 4.16 1.64 2.34 1.64 2.34 1.64 6.34-1.12 0.196-1.12 0.196-2.27 0.396-3.52 0.615-7.03 1.23-10.5 1.85-1.27 0.225-2.55 0.449-3.86 0.68-7.34 1.31-14.6 2.75-21.9 4.38-13.4 2.92-13.4 2.92-19.4 1.69-2.75-1.81-2.75-1.81-5-5-0.758-1.05-0.758-1.05-1.53-2.11-9.94-14.5-16.2-30.9-20.5-47.9-0.259-1.01-0.259-1.01-0.523-2.05-8.9-36-0.756-75.6 18.1-107 23.8-38.3 59.6-61.5 103-72.2 6.15-1.37 12.2-1.86 18.4-2.12 0.998-0.042 2-0.0841 3.03-0.127 13.2-0.503 26.5-0.485 39.7-0.488z" fill="#230393"/>
<path transform="translate(533 688)" d="m0 0c3.18 1.39 3.95 3.51 5.59 6.54 0.499 0.907 0.499 0.907 1.01 1.83 1.18 2.17 2.34 4.35 3.49 6.54 0.465 0.883 0.931 1.77 1.41 2.67 2.58 4.91 5.15 9.83 7.7 14.8 1.99 3.84 4 7.67 6.06 11.5 2.78 5.17 5.49 10.3 8.11 15.6 0.331 0.663 0.661 1.33 1 2.01 0.781 1.57 1.56 3.13 2.34 4.7 4.54 9.12 9.1 18.2 13.6 27.4 1.73 3.46 3.45 6.92 5.18 10.4 7.38 14.8 14.8 29.6 22.6 44.2 2.4 4.5 4.75 9.03 7.12 13.6 0.46 0.877 0.92 1.75 1.39 2.66 3.88 7.43 7.63 14.9 11.4 22.4 1.57 3.15 3.16 6.3 4.74 9.46 1.67 3.32 3.33 6.63 4.99 9.95 0.852 1.7 1.71 3.4 2.56 5.1 1.25 2.5 2.51 5 3.76 7.5 0.57 1.13 0.57 1.13 1.15 2.29 1.8 3.6 3.5 7.18 4.92 10.9-3.54 0-6.7-0.812-10.1-1.62-6.33-1.47-12.7-2.73-19.1-3.87-0.724-0.129-1.45-0.258-2.19-0.391-3.66-0.65-7.32-1.29-11-1.92-21.1-3.67-21.1-3.67-28.4-14-2.55-3.98-4.71-8.1-6.8-12.3-0.344-0.694-0.688-1.39-1.04-2.1-0.737-1.49-1.47-2.97-2.21-4.46-1.9-3.84-3.81-7.67-5.72-11.5-0.388-0.779-0.776-1.56-1.18-2.36-7.59-15.2-15.2-30.4-23.2-45.4-1.88-3.52-3.75-7.04-5.62-10.6-0.439-0.818-0.878-1.64-1.33-2.48-0.399-0.751-0.798-1.5-1.21-2.28-0.533-0.997-0.533-0.997-1.08-2.01-0.759-1.67-0.759-1.67-0.759-3.67-3.62 2.41-3.85 3.71-5.24 7.74-2.74 7.45-6.24 14.4-9.95 21.4-0.667 1.27-1.33 2.55-2 3.83-2.93 5.6-5.88 11.2-8.84 16.8-0.866 1.64-1.73 3.27-2.6 4.91-0.398 0.751-0.797 1.5-1.21 2.28-2.95 5.6-5.68 11.3-8.17 17.1-6.33 0.48-11-1.17-16.9-3.5-0.914-0.357-1.83-0.715-2.77-1.08-22.9-9.1-22.9-9.1-29.4-14.4 0.552-4.89 2.12-8.75 4.38-13.1 0.349-0.682 0.697-1.36 1.06-2.07 1.18-2.3 2.37-4.58 3.57-6.87 0.437-0.836 0.875-1.67 1.33-2.53 1.86-3.56 3.73-7.12 5.6-10.7 4.14-7.87 8.13-15.8 12.1-23.8 5.34-10.8 10.8-21.5 16.4-32.1 2.55-4.82 5.05-9.66 7.48-14.5 0.315-0.632 0.63-1.26 0.955-1.92 1.5-3.02 3-6.05 4.49-9.07 5.56-11.3 11.2-22.5 17.2-33.5 0.738-1.37 0.738-1.37 1.49-2.77 7.21-13.2 7.21-13.2 11.9-13z" fill="#230393"/>
<path transform="translate(724 680)" d="m0 0c0.791-0.00315 1.58-0.0063 2.4-0.00955 1.27 0.00304 1.27 0.00304 2.56 0.00613 0.875-9.57e-4 1.75-0.00191 2.65-0.0029 1.85-6.79e-4 3.69 0.00116 5.54 0.00534 2.83 0.00536 5.66 4.39e-5 8.49-0.00635 1.79 6.61e-4 3.59 0.00194 5.38 0.00391 0.847-0.00202 1.69-0.00405 2.57-0.00613 3.36 0.0134 6.13 0.0689 9.34 1.14 3.49 5.14 3.42 9.82 3.36 15.8 0.00256 0.981 0.00513 1.96 0.00777 2.97 0.00494 3.28-0.0116 6.57-0.028 9.85-8.46e-4 2.36-3.71e-4 4.71 0.00133 7.07 8.61e-4 6.39-0.0168 12.8-0.0377 19.2-0.0168 6.01-0.0199 12-0.023 18-0.00656 11.9-0.0265 23.8-0.0549 35.7-0.0275 11.6-0.0488 23.1-0.0615 34.7-7.88e-4 0.712-0.00158 1.42-0.00239 2.16-0.00392 3.57-0.00771 7.15-0.0114 10.7-0.0311 29.6-0.0841 59.3-0.151 88.9-7.37 0.0506-14.7 0.0857-22.1 0.11-2.51 0.0101-5.02 0.0237-7.53 0.041-3.6 0.0242-7.2 0.0356-10.8 0.0444-1.13 0.0103-2.25 0.0206-3.42 0.0313-1.04 1.51e-4 -2.08 3.02e-4 -3.15 4.58e-4 -0.919 0.00444-1.84 0.00888-2.79 0.0135-2.21-0.241-2.21-0.241-4.21-2.24-0.249-2.81-0.249-2.81-0.247-6.49-0.00241-0.675-0.00483-1.35-0.00732-2.04-0.00566-2.27 0.00305-4.55 0.0116-6.82-0.00107-1.63-0.00301-3.26-0.00575-4.89-0.00487-4.45 0.00285-8.9 0.013-13.4 0.00882-4.71 0.00702-9.43 0.00664-14.1 9.4e-4 -7.98 0.00964-16 0.0233-23.9 0.0137-8.07 0.021-16.1 0.0205-24.2-0.00215-38 0.00787-75.9 0.635-114 0.0289-1.84 0.0289-1.84 0.0585-3.72 0.0551-3.38 0.117-6.76 0.182-10.1 0.0161-0.965 0.0322-1.93 0.0489-2.92 0.293-13.5 0.293-13.5 3.26-16.5 2.73-0.9 5.22-1.13 8.08-1.13z" fill="#230393"/>
<path transform="translate(983 829)" d="m0 0c1.03-0.00282 2.05-0.00564 3.11-0.00854 1.12 0.00202 2.24 0.00405 3.39 0.00613 1.18-0.00175 2.37-0.0035 3.59-0.00531 3.24-0.00365 6.49-0.00279 9.73 3.79e-4 3.4 0.00253 6.79 1.83e-4 10.2-0.00139 5.7-0.00182 11.4 5.77e-4 17.1 0.00534 6.59 0.00544 13.2 0.00368 19.8-0.00183 5.66-0.00454 11.3-0.00518 17-0.00256 3.38 0.00156 6.76 0.00177 10.1-0.00154 3.77-0.00253 7.54 0.00132 11.3 0.0069 1.12-0.00202 2.24-0.00405 3.39-0.00613 1.03 0.00282 2.05 0.00564 3.11 0.00854 0.891 3.77e-4 1.78 7.54e-4 2.7 0.00114 2.31 0.122 4.21 0.332 6.39 1.13 2.95 4.44 3.52 8.64 3.68 13.8 0.0496 1.11 0.0496 1.11 0.1 2.25 0.319 7.79 0.365 15.6 0.353 23.4 0.00102 1.53 0.00236 3.06 4e-3 4.59 0.00266 4.03-0.00169 8.05-0.00824 12.1-0.00359 2.49-0.00519 4.98-0.00626 7.47-0.0128 24.1-0.202 48.3-1.12 72.4-2.35-0.303-2.35-0.303-5-1-5.13-6.83-8.46-14.9-12.1-22.6-0.665-1.39-1.33-2.77-2-4.16-1.33-2.78-2.67-5.56-4-8.35-1.68-3.51-3.37-7.02-5.06-10.5-4.04-8.37-8.02-16.7-11.7-25.3-1.04-2.38-2.08-4.75-3.12-7.13-0.603-1.4-0.603-1.4-1.22-2.84-2.62-5.47-5.29-7.51-11-9.61-0.592-0.184-1.18-0.369-1.79-0.559v-2c-0.842-0.267-1.68-0.534-2.55-0.809-3.63-1.25-7.13-2.7-10.6-4.25-0.692-0.305-1.38-0.609-2.1-0.923-7.76-3.44-15.4-7.09-23.1-10.8-2.83-1.35-5.67-2.69-8.5-4.03-29.2-13.8-29.2-13.8-32.1-18.2 3.5-4.02 6.94-4.12 12.1-4.13z" fill="#230393"/>
<path transform="translate(426,883)" d="m0 0c6.86 2.22 11.7 5.2 17.2 9.85 3.15 2.44 6.41 4.35 9.9 6.27 7.89 4.37 14.4 8.66 19.9 15.9h-2c-0.334 1.15-0.334 1.15-0.675 2.33-1.81 5.01-4.16 9.68-6.52 14.4-0.513 1.04-1.03 2.07-1.56 3.14-1.09 2.19-2.17 4.37-3.27 6.56-1.65 3.32-3.29 6.65-4.93 9.97-1.06 2.13-2.12 4.26-3.19 6.39-0.483 0.985-0.965 1.97-1.46 2.98-3.33 6.61-7.13 12.9-12.4 18.2-1.61 0.1-3.22 0.131-4.83 0.133-1.02 0.00218-2.04 0.00435-3.08 0.00659-1.65-0.00713-1.65-0.00713-3.34-0.0144-1.12-0.00411-2.24-0.00822-3.39-0.0125-7.35-0.0483-14.7-0.157-22-0.425-0.853-0.0224-1.71-0.0448-2.58-0.0679-4.87-0.217-8.59-0.772-12.7-3.62-1.44-3.72-0.486-5.94 1.1-9.53 0.34-0.732 0.679-1.46 1.03-2.22 0.529-1.17 0.529-1.17 1.07-2.35 4.15-8.95 8.95-17.5 13.7-26.2 3.57-6.52 6.91-13.1 10.2-19.8 1.01-2.05 2.03-4.08 3.06-6.12 6.71-12.4 6.71-12.4 10.9-25.8z" fill="#230393"/>
<path transform="translate(796,606)" d="m0 0c7.11 6.66 11 16 11.5 25.7-0.532 9.22-5.92 16.2-12.5 22.3-6 4.91-11.3 6.94-19 6.52-4.9-0.868-8.78-2.89-13-5.52-0.66-0.396-1.32-0.791-2-1.2-7.5-4.86-10.7-11-12.6-19.7-1.07-8.61 1.58-15.5 6.42-22.6 10.8-12.5 27.6-15.2 41.2-5.52z" fill="#FB0EA5"/>
<path transform="translate(715 603)" d="m0 0c6.44 5.24 12.6 13.3 13.6 21.7 1.18 14.1 1.18 14.1-3.52 20.3-0.487 0.572-0.975 1.14-1.48 1.73-0.669 0.92-0.669 0.92-1.35 1.86-4.92 6.43-11.6 10.2-19.6 11.4-8.42 0.526-15.7-3.45-22-8.81-0.681-0.825-1.36-1.65-2.06-2.5-0.866-0.887-1.73-1.77-2.62-2.69-4.35-5.39-5.7-11.9-5.44-18.8 1.02-7.71 4.66-14.7 10.4-20 9.65-7.39 22.9-10.4 34.1-4.25z" fill="#FB0EA5"/>
</svg>
